HIERARCHY
ROOT hip
{
OFFSET -0.11 97.68 3.22
CHANNELS 6 Xposition Yposition Zposition Zrotation Xrotation Yrotation
JOINT abdomen
{
OFFSET -0.02 7.24 0
CHANNELS 6 Xposition Yposition Zposition Zrotation Xrotation Yrotation
JOINT chest
{
OFFSET 0 16.55 -0
CHANNELS 6 Xposition Yposition Zposition Zrotation Xrotation Yrotation
JOINT neck
{
OFFSET 0 34.21 -0
CHANNELS 6 Xposition Yposition Zposition Zrotation Xrotation Yrotation
JOINT head
{
OFFSET 0 6.29 0
CHANNELS 6 Xposition Yposition Zposition Zrotation Xrotation Yrotation
End Site
{
OFFSET 0 0 0
}
}
}
JOINT lCollar
{
OFFSET 4.06 26.61 -1.12
CHANNELS 6 Xposition Yposition Zposition Zrotation Xrotation Yrotation
JOINT lShldr
{
OFFSET 14.17 0 0
CHANNELS 6 Xposition Yposition Zposition Zrotation Xrotation Yrotation
JOINT lForeArm
{
OFFSET 26.12 0 0
CHANNELS 6 Xposition Yposition Zposition Zrotation Xrotation Yrotation
JOINT lHand
{
OFFSET 27.71 0 0
CHANNELS 6 Xposition Yposition Zposition Zrotation Xrotation Yrotation
JOINT lThumb1
{
OFFSET 2.29 -0.46 1.83
CHANNELS 6 Xposition Yposition Zposition Zrotation Xrotation Yrotation
JOINT lThumb2
{
OFFSET 5.29 0 0
CHANNELS 6 Xposition Yposition Zposition Zrotation Xrotation Yrotation
JOINT lThumb3
{
OFFSET 3.01 0 0
CHANNELS 6 Xposition Yposition Zposition Zrotation Xrotation Yrotation
End Site
{
OFFSET 0 0 0
}
}
}
}
JOINT lIndex1
{
OFFSET 9.37 0.29 2.59
CHANNELS 6 Xposition Yposition Zposition Zrotation Xrotation Yrotation
JOINT lIndex2
{
OFFSET 4.34 0 0
CHANNELS 6 Xposition Yposition Zposition Zrotation Xrotation Yrotation
JOINT lIndex3
{
OFFSET 2.16 0 0
CHANNELS 6 Xposition Yposition Zposition Zrotation Xrotation Yrotation
End Site
{
OFFSET 0 0 0
}
}
}
}
JOINT lMid1
{
OFFSET 9.47 0.83 0.29
CHANNELS 6 Xposition Yposition Zposition Zrotation Xrotation Yrotation
JOINT lMid2
{
OFFSET 4.77 0 0
CHANNELS 6 Xposition Yposition Zposition Zrotation Xrotation Yrotation
JOINT lMid3
{
OFFSET 2.87 0 0
CHANNELS 6 Xposition Yposition Zposition Zrotation Xrotation Yrotation
End Site
{
OFFSET 0 0 0
}
}
}
}
JOINT lRing1
{
OFFSET 8.65 1.01 -1.70
CHANNELS 6 Xposition Yposition Zposition Zrotation Xrotation Yrotation
JOINT lRing2
{
OFFSET 4.54 0 0
CHANNELS 6 Xposition Yposition Zposition Zrotation Xrotation Yrotation
JOINT lRing3
{
OFFSET 2.50 0 0
CHANNELS 6 Xposition Yposition Zposition Zrotation Xrotation Yrotation
End Site
{
OFFSET 0 0 0
}
}
}
}
JOINT lPinky1
{
OFFSET 7.69 0.66 -3.90
CHANNELS 6 Xposition Yposition Zposition Zrotation Xrotation Yrotation
JOINT lPinky2
{
OFFSET 3.21 0 0
CHANNELS 6 Xposition Yposition Zposition Zrotation Xrotation Yrotation
JOINT lPinky3
{
OFFSET 1.92 0 0
CHANNELS 6 Xposition Yposition Zposition Zrotation Xrotation Yrotation
End Site
{
OFFSET 0 0 0
}
}
}
}
}
}
}
}
JOINT rCollar
{
OFFSET -4.06 26.61 -1.12
CHANNELS 6 Xposition Yposition Zposition Zrotation Xrotation Yrotation
JOINT rShldr
{
OFFSET -14.17 0 0
CHANNELS 6 Xposition Yposition Zposition Zrotation Xrotation Yrotation
JOINT rForeArm
{
OFFSET -26.12 0 0
CHANNELS 6 Xposition Yposition Zposition Zrotation Xrotation Yrotation
JOINT rHand
{
OFFSET -27.71 0 0
CHANNELS 6 Xposition Yposition Zposition Zrotation Xrotation Yrotation
JOINT rThumb1
{
OFFSET -2.29 -0.46 1.83
CHANNELS 6 Xposition Yposition Zposition Zrotation Xrotation Yrotation
JOINT rThumb2
{
OFFSET -5.29 0 0
CHANNELS 6 Xposition Yposition Zposition Zrotation Xrotation Yrotation
JOINT rThumb3
{
OFFSET -3.01 0 0
CHANNELS 6 Xposition Yposition Zposition Zrotation Xrotation Yrotation
End Site
{
OFFSET 0 0 0
}
}
}
}
JOINT rIndex1
{
OFFSET -9.37 0.29 2.59
CHANNELS 6 Xposition Yposition Zposition Zrotation Xrotation Yrotation
JOINT rIndex2
{
OFFSET -4.34 0 0
CHANNELS 6 Xposition Yposition Zposition Zrotation Xrotation Yrotation
JOINT rIndex3
{
OFFSET -2.16 0 0
CHANNELS 6 Xposition Yposition Zposition Zrotation Xrotation Yrotation
End Site
{
OFFSET 0 0 0
}
}
}
}
JOINT rMid1
{
OFFSET -9.47 0.83 0.29
CHANNELS 6 Xposition Yposition Zposition Zrotation Xrotation Yrotation
JOINT rMid2
{
OFFSET -4.77 0 0
CHANNELS 6 Xposition Yposition Zposition Zrotation Xrotation Yrotation
JOINT rMid3
{
OFFSET -2.87 0 0
CHANNELS 6 Xposition Yposition Zposition Zrotation Xrotation Yrotation
End Site
{
OFFSET 0 0 0
}
}
}
}
JOINT rRing1
{
OFFSET -8.65 1.01 -1.70
CHANNELS 6 Xposition Yposition Zposition Zrotation Xrotation Yrotation
JOINT rRing2
{
OFFSET -4.54 0 0
CHANNELS 6 Xposition Yposition Zposition Zrotation Xrotation Yrotation
JOINT rRing3
{
OFFSET -2.50 0 0
CHANNELS 6 Xposition Yposition Zposition Zrotation Xrotation Yrotation
End Site
{
OFFSET 0 0 0
}
}
}
}
JOINT rPinky1
{
OFFSET -7.69 0.66 -3.90
CHANNELS 6 Xposition Yposition Zposition Zrotation Xrotation Yrotation
JOINT rPinky2
{
OFFSET -3.21 0 0
CHANNELS 6 Xposition Yposition Zposition Zrotation Xrotation Yrotation
JOINT rPinky3
{
OFFSET -1.92 0 0
CHANNELS 6 Xposition Yposition Zposition Zrotation Xrotation Yrotation
End Site
{
OFFSET 0 0 0
}
}
}
}
}
}
}
}
}
}
JOINT lThigh
{
OFFSET 8.73 -0 0
CHANNELS 6 Xposition Yposition Zposition Zrotation Xrotation Yrotation
JOINT lShin
{
OFFSET 0 -46.66 0
CHANNELS 6 Xposition Yposition Zposition Zrotation Xrotation Yrotation
JOINT lFoot
{
OFFSET 0 -40.14 0
CHANNELS 6 Xposition Yposition Zposition Zrotation Xrotation Yrotation
JOINT lToes
{
OFFSET 0 -8.88 14.22
CHANNELS 6 Xposition Yposition Zposition Zrotation Xrotation Yrotation
End Site
{
OFFSET 0 0 0
}
}
}
}
}
JOINT rThigh
{
OFFSET -8.73 0 -0
CHANNELS 6 Xposition Yposition Zposition Zrotation Xrotation Yrotation
JOINT rShin
{
OFFSET 0 -46.66 0
CHANNELS 6 Xposition Yposition Zposition Zrotation Xrotation Yrotation
JOINT rFoot
{
OFFSET 0 -40.14 0
CHANNELS 6 Xposition Yposition Zposition Zrotation Xrotation Yrotation
JOINT rToes
{
OFFSET 0 -8.88 14.22
CHANNELS 6 Xposition Yposition Zposition Zrotation Xrotation Yrotation
End Site
{
OFFSET 0 0 0
}
}
}
}
}
}
MOTION
Frames: 4
Frame Time: 0.03
7.70 100.01 2.07 2.72 -4.78 30.58 -0.01 7.24 0 4.78 0.83 1.66 -0 16.55 0 0.60 7.48 7.45 0 34.21 -0 0 0.56 0 0 6.29 0 -27.52 0.30 -17.82 4.06 26.61 -1.12 -19.94 -3.82 -2.82 14.17 0 0 108.86 -71.79 -161.20 26.12 0 0 0 0 -37.71 27.71 0 0 -44.64 73.65 99.56 2.29 -0.46 1.83 57.19 34.31 -81.43 5.29 0 0 0 0 0 3.01 0 0 0 0 0 9.37 0.29 2.59 24.22 -1.62 -3.34 4.34 0 0 0 0 0 2.16 0 0 0 0 0 9.47 0.83 0.29 16.96 14.27 7.03 4.77 0 0 0 0 0 2.87 0 0 -0 0 0 8.65 1.01 -1.70 23.79 3.43 14.82 4.54 0 0 0 0 0 2.50 0 0 0 0 0 7.69 0.66 -3.90 21.17 -7.01 16.30 3.21 0 0 0 0 0 1.92 0 0 0 0 0 -4.06 26.61 -1.12 5.80 -4.25 3.23 -14.17 0 0 41.91 20.53 45.87 -26.12 0 0 0 0 115.11 -27.71 0 0 32.83 -14.18 31.01 -2.29 -0.46 1.83 -57.19 34.31 81.43 -5.29 0 0 0 0 0 -3.01 0 0 0 0 0 -9.37 0.29 2.59 -24.22 -1.62 3.34 -4.34 0 0 0 0 0 -2.16 0 0 -0 0 0 -9.47 0.83 0.29 -16.96 14.27 -7.03 -4.77 0 0 -0 0 0 -2.87 0 0 0 0 0 -8.65 1.01 -1.70 -23.79 3.43 -14.82 -4.54 0 0 0 0 0 -2.50 0 0 -0 0 0 -7.69 0.66 -3.90 -21.17 -7.01 -16.30 -3.21 0 0 -0 0 0 -1.92 0 0 0 0 0 8.73 -0 0 8.33 6.23 -6.66 0 -46.66 0 0 4.70 0 0 -40.14 0 -1.42 12.01 -0.24 0 -8.88 14.22 0 0 0 -8.73 0 -0 -3.77 9.85 -0.35 0 -46.66 0 0 12.19 0 0 -40.14 0 4.47 -3.20 0.51 0 -8.88 14.22 0 0 0 
7.70 100.13 1.97 2.56 -4.75 29.28 -0.01 7.24 0 4.72 0.84 1.76 -0 16.55 0 0.52 7.50 7.79 0 34.21 -0 0 0.56 0 0 6.29 0 -27.08 0.02 -16.82 4.06 26.61 -1.12 -20.52 -3.75 -2.99 14.17 0 0 110.42 -68.37 -155.02 26.12 0 0 0 0 -47.27 27.71 0 0 -42.33 68.76 98.24 2.29 -0.46 1.83 57.19 34.31 -81.43 5.29 0 0 0 0 0 3.01 0 0 0 0 0 9.37 0.29 2.59 24.22 -1.62 -3.34 4.34 0 0 0 0 0 2.16 0 0 0 0 0 9.47 0.83 0.29 16.96 14.27 7.03 4.77 0 0 0 0 0 2.87 0 0 -0 0 0 8.65 1.01 -1.70 23.79 3.43 14.82 4.54 0 0 0 0 0 2.50 0 0 0 0 0 7.69 0.66 -3.90 21.17 -7.01 16.30 3.21 0 0 0 0 0 1.92 0 0 0 0 0 -4.06 26.61 -1.12 5.92 -4.26 3.10 -14.17 0 0 40.78 21.36 44.66 -26.12 0 0 0 0 115.03 -27.71 0 0 32.53 -15.42 31.14 -2.29 -0.46 1.83 -57.19 34.31 81.43 -5.29 0 0 0 0 0 -3.01 0 0 0 0 0 -9.37 0.29 2.59 -24.22 -1.62 3.34 -4.34 0 0 0 0 0 -2.16 0 0 -0 0 0 -9.47 0.83 0.29 -16.96 14.27 -7.03 -4.77 0 0 0 0 0 -2.87 0 0 0 0 0 -8.65 1.01 -1.70 -23.79 3.43 -14.82 -4.54 0 0 0 0 0 -2.50 0 0 -0 0 0 -7.69 0.66 -3.90 -21.17 -7.01 -16.30 -3.21 0 0 -0 0 0 -1.92 0 0 0 0 0 8.73 -0 0 8.28 6.34 -4.81 0 -46.66 0 0 4.77 0 0 -40.14 0 -1.66 10.08 -0.17 0 -8.88 14.22 0 0 0 -8.73 0 -0 -4.06 9.42 0.64 0 -46.66 0 0 12.33 0 0 -40.14 0 4.63 -3.08 0.53 0 -8.88 14.22 0 0 0 
7.70 100.25 1.87 2.39 -4.72 27.85 -0.01 7.24 0 4.66 0.85 1.84 -0 16.55 0 0.44 7.52 8.10 0 34.21 -0 0 0.56 0 0 6.29 0 -26.61 -0.30 -15.69 4.06 26.61 -1.12 -21.19 -3.65 -3.18 14.17 0 0 110.99 -64.49 -148.22 26.12 0 0 0 0 -59.53 27.71 0 0 -39.96 62.67 97.15 2.29 -0.46 1.83 57.19 34.31 -81.43 5.29 0 0 0 0 0 3.01 0 0 0 0 0 9.37 0.29 2.59 24.22 -1.62 -3.34 4.34 0 0 0 0 0 2.16 0 0 0 0 0 9.47 0.83 0.29 16.96 14.27 7.03 4.77 0 0 0 0 0 2.87 0 0 -0 0 0 8.65 1.01 -1.70 23.79 3.43 14.82 4.54 0 0 0 0 0 2.50 0 0 0 0 0 7.69 0.66 -3.90 21.17 -7.01 16.30 3.21 0 0 0 0 0 1.92 0 0 0 0 0 -4.06 26.61 -1.12 6.03 -4.27 3.02 -14.17 0 0 39.53 22.14 43.36 -26.12 0 0 0 0 115.07 -27.71 0 0 32.29 -17.03 31.08 -2.29 -0.46 1.83 -57.19 34.31 81.43 -5.29 0 0 0 0 0 -3.01 0 0 0 0 0 -9.37 0.29 2.59 -24.22 -1.62 3.34 -4.34 0 0 0 0 0 -2.16 0 0 -0 0 0 -9.47 0.83 0.29 -16.96 14.27 -7.03 -4.77 0 0 0 0 0 -2.87 0 0 0 0 0 -8.65 1.01 -1.70 -23.79 3.43 -14.82 -4.54 0 0 0 0 0 -2.50 0 0 -0 0 0 -7.69 0.66 -3.90 -21.17 -7.01 -16.30 -3.21 0 0 -0 0 0 -1.92 0 0 0 0 0 8.73 -0 0 8.20 6.46 -3.26 0 -46.66 0 0 4.84 0 0 -40.14 0 -1.84 9.09 -0.13 0 -8.88 14.22 0 0 0 -8.73 0 -0 -4.40 8.87 1.83 0 -46.66 0 0 12.55 0 0 -40.14 0 4.82 -2.97 0.56 0 -8.88 14.22 0 0 0 
7.70 100.36 1.78 2.22 -4.68 26.37 -0.01 7.24 0 4.58 0.86 1.92 -0 16.55 0 0.37 7.54 8.38 0 34.21 -0 0 0.56 0 0 6.29 0 -26.10 -0.62 -14.53 4.06 26.61 -1.12 -21.94 -3.56 -3.36 14.17 0 0 111.28 -61.81 -141.77 26.12 0 0 0 0 -71.54 27.71 0 0 -37.52 56.17 95.78 2.29 -0.46 1.83 57.19 34.31 -81.43 5.29 0 0 0 0 0 3.01 0 0 0 0 0 9.37 0.29 2.59 24.22 -1.62 -3.34 4.34 0 0 0 0 0 2.16 0 0 0 0 0 9.47 0.83 0.29 16.96 14.27 7.03 4.77 0 0 0 0 0 2.87 0 0 -0 0 0 8.65 1.01 -1.70 23.79 3.43 14.82 4.54 0 0 0 0 0 2.50 0 0 0 0 0 7.69 0.66 -3.90 21.17 -7.01 16.30 3.21 0 0 0 0 0 1.92 0 0 0 0 0 -4.06 26.61 -1.12 6.11 -4.26 3.04 -14.17 0 0 38.21 22.74 42.00 -26.12 0 0 0 0 115.31 -27.71 0 0 32.24 -19.06 30.88 -2.29 -0.46 1.83 -57.19 34.31 81.43 -5.29 0 0 0 0 0 -3.01 0 0 0 0 0 -9.37 0.29 2.59 -24.22 -1.62 3.34 -4.34 0 0 0 0 0 -2.16 0 0 -0 0 0 -9.47 0.83 0.29 -16.96 14.27 -7.03 -4.77 0 0 0 0 0 -2.87 0 0 0 0 0 -8.65 1.01 -1.70 -23.79 3.43 -14.82 -4.54 0 0 0 0 0 -2.50 0 0 -0 0 0 -7.69 0.66 -3.90 -21.17 -7.01 -16.30 -3.21 0 0 -0 0 0 -1.92 0 0 0 0 0 8.73 -0 0 8.10 6.58 -2.15 0 -46.66 0 0 4.90 0 0 -40.14 0 -1.91 9.36 -0.14 0 -8.88 14.22 0 0 0 -8.73 0 -0 -4.74 8.26 3.11 0 -46.66 0 0 12.81 0 0 -40.14 0 5.04 -2.87 0.60 0 -8.88 14.22 0 0 0 
